<svg width="32" height="32" viewBox="0 0 32 32" fill="none" xmlns="http://www.w3.org/2000/svg">
<g id="Frame">
<g id="Group">
<path id="Vector" d="M2.66699 15.9974C2.66699 23.3614 8.63633 29.3307 16.0003 29.3307C23.3643 29.3307 29.3337 23.3614 29.3337 15.9974C29.3337 8.6334 23.3643 2.66406 16.0003 2.66406C8.63633 2.66406 2.66699 8.6334 2.66699 15.9974Z" stroke="white" stroke-width="2" stroke-linecap="round" stroke-linejoin="round"/>
<path id="Vector_2" d="M17.3335 2.73438C17.3335 2.73438 21.3335 8.00104 21.3335 16.001C21.3335 24.001 17.3335 29.2677 17.3335 29.2677M14.6668 29.2677C14.6668 29.2677 10.6668 24.001 10.6668 16.001C10.6668 8.00104 14.6668 2.73438 14.6668 2.73438M3.50684 20.6677H28.4935M3.50684 11.3344H28.4935" stroke="white" stroke-width="2" stroke-linecap="round" stroke-linejoin="round"/>
</g>
</g>
</svg>
