<svg width="48" height="41" viewBox="0 0 48 41" fill="none" xmlns="http://www.w3.org/2000/svg">
<path fill-rule="evenodd" clip-rule="evenodd" d="M14.0927 1.92937C17.8116 0.473363 23.4878 -1.56493 32.0021 1.9295L31.7085 3.67661L22.9006 8.62706L14.6799 3.67661L14.0927 1.92937ZM12.3311 1.63828H7.63353L10.5695 10.4832L14.3863 13.8687H20.5518L19.3774 8.04469L12.9183 3.96788L12.3311 1.63828ZM33.7637 1.63828H38.4612L36.6997 10.6655L31.7085 13.8687H25.543L26.7173 8.04469L33.4701 3.67668L33.7637 1.63828ZM17.0286 17.9455L20.2582 16.1983V22.8959H26.4237V16.1983L30.2405 17.9455V27.3728L27.3045 30.4671H23.7814V38.4752C24.2879 38.6045 24.6622 39.0605 24.6622 39.6033C24.6622 40.2466 24.1364 40.7681 23.4878 40.7681C22.8392 40.7681 22.3134 40.2466 22.3134 39.6033C22.3134 39.0605 22.6877 38.6045 23.1942 38.4752V30.4671H20.2582L17.0286 27.3728V17.9455ZM22.9006 39.6033C22.9006 39.2816 23.1635 39.0209 23.4878 39.0209C23.8121 39.0209 24.075 39.2816 24.075 39.6033C24.075 39.9249 23.8121 40.1857 23.4878 40.1857C23.1635 40.1857 22.9006 39.9249 22.9006 39.6033ZM32.0021 18.6368C32.1642 18.6368 32.2957 18.7672 32.2957 18.928V27.9552V28.0653L32.2222 28.1479L27.8917 33.0158V36.6913C27.8917 36.7035 27.891 36.7156 27.8895 36.7274C28.3972 36.8559 28.7725 37.3125 28.7725 37.8561C28.7725 38.4994 28.2467 39.0209 27.5981 39.0209C26.9495 39.0209 26.4237 38.4994 26.4237 37.8561C26.4237 37.3125 26.7991 36.8559 27.3068 36.7274C27.3053 36.7156 27.3045 36.7035 27.3045 36.6913V32.9057V32.7956L27.378 32.713L31.7085 27.8451V18.928C31.7085 18.7672 31.8399 18.6368 32.0021 18.6368ZM31.1213 35.8762C31.1213 36.1978 30.8584 36.4586 30.5341 36.4586C30.2098 36.4586 29.9469 36.1978 29.9469 35.8762C29.9469 35.5545 30.2098 35.2938 30.5341 35.2938C30.8584 35.2938 31.1213 35.5545 31.1213 35.8762ZM30.2405 34.7481C29.734 34.8774 29.3597 35.3334 29.3597 35.8762C29.3597 36.5195 29.8855 37.041 30.5341 37.041C31.1827 37.041 31.7085 36.5195 31.7085 35.8762C31.7085 35.3334 31.3342 34.8774 30.8277 34.7481V33.0027L34.2922 28.4212L34.3509 28.3435V28.2464V16.5984C34.3509 16.4376 34.2194 16.3072 34.0573 16.3072C33.8951 16.3072 33.7637 16.4376 33.7637 16.5984V28.1494L30.2992 32.7309L30.2405 32.8086V32.9057V34.7481ZM34.0573 34.3617C34.3816 34.3617 34.6445 34.1009 34.6445 33.7793C34.6445 33.4576 34.3816 33.1969 34.0573 33.1969C33.733 33.1969 33.4701 33.4576 33.4701 33.7793C33.4701 34.1009 33.733 34.3617 34.0573 34.3617ZM34.0573 34.9441C34.7059 34.9441 35.2317 34.4226 35.2317 33.7793C35.2317 33.2357 34.8563 32.7791 34.3486 32.6506C34.3495 32.6437 34.3501 32.6367 34.3505 32.6297C34.3507 32.6246 34.3509 32.6196 34.3509 32.6145V31.5345L36.3602 28.4028L36.4061 28.3312V28.2464V13.9776C36.4061 13.8168 36.2746 13.6864 36.1125 13.6864C35.9503 13.6864 35.8189 13.8168 35.8189 13.9776V28.1617L33.8096 31.2933L33.7637 31.3649V31.4497V32.6145C33.7637 32.6267 33.7644 32.6387 33.7659 32.6506C33.2583 32.7791 32.8829 33.2357 32.8829 33.7793C32.8829 34.4226 33.4087 34.9441 34.0573 34.9441ZM42.278 24.4608C42.278 24.7825 42.0151 25.0432 41.6908 25.0432C41.3665 25.0432 41.1036 24.7825 41.1036 24.4608C41.1036 24.3494 41.1352 24.2453 41.1899 24.1568C41.2567 24.1364 41.3165 24.0924 41.3554 24.0283C41.3679 24.0076 41.3775 23.986 41.3843 23.964C41.4735 23.9097 41.5785 23.8784 41.6908 23.8784C42.0151 23.8784 42.278 24.1392 42.278 24.4608ZM41.0322 23.4963C41.22 23.3699 41.4467 23.296 41.6908 23.296C42.3394 23.296 42.8652 23.8175 42.8652 24.4608C42.8652 25.1041 42.3394 25.6256 41.6908 25.6256C41.0422 25.6256 40.5164 25.1041 40.5164 24.4608C40.5164 24.2743 40.5606 24.098 40.6392 23.9417L38.0166 22.3809L37.874 22.2961V22.1312V12.8816L37.3178 11.7782C37.2453 11.6344 37.3041 11.4595 37.4491 11.3876C37.5942 11.3156 37.7705 11.3739 37.843 11.5178L38.4302 12.6826L38.4612 12.7441V12.8128V21.9664L41.0322 23.4963ZM42.8652 22.1312C43.1895 22.1312 43.4524 21.8705 43.4524 21.5488C43.4524 21.2272 43.1895 20.9664 42.8652 20.9664C42.5409 20.9664 42.278 21.2272 42.278 21.5488C42.278 21.8705 42.5409 22.1312 42.8652 22.1312ZM42.8652 22.7136C43.5138 22.7136 44.0396 22.1921 44.0396 21.5488C44.0396 20.9055 43.5138 20.384 42.8652 20.384C42.4636 20.384 42.1091 20.5839 41.8973 20.8889L40.5164 20.2041V11.648V11.5674L40.4746 11.4982L38.713 8.58619C38.6296 8.44829 38.4492 8.40357 38.3102 8.48631C38.1711 8.56906 38.126 8.74793 38.2095 8.88584L39.9292 11.7287V20.384V20.564L40.0915 20.6445L41.6959 21.4401C41.6925 21.4759 41.6908 21.5122 41.6908 21.5488C41.6908 22.1921 42.2166 22.7136 42.8652 22.7136ZM45.214 18.6368C45.214 18.9585 44.9511 19.2192 44.6268 19.2192C44.3025 19.2192 44.0396 18.9585 44.0396 18.6368C44.0396 18.3152 44.3025 18.0544 44.6268 18.0544C44.9511 18.0544 45.214 18.3152 45.214 18.6368ZM45.8012 18.6368C45.8012 19.2801 45.2754 19.8016 44.6268 19.8016C43.9782 19.8016 43.4524 19.2801 43.4524 18.6368C43.4524 18.5897 43.4552 18.5431 43.4607 18.4974L42.3954 17.705L42.278 17.6176V17.472V11.1499L38.8002 5.68831C38.7136 5.55233 38.7546 5.37248 38.8916 5.2866C39.0287 5.20072 39.2101 5.24133 39.2967 5.37731L42.8198 10.9101L42.8652 10.9814V11.0656V17.3264L43.6872 17.9379C43.9015 17.655 44.2426 17.472 44.6268 17.472C45.2754 17.472 45.8012 17.9935 45.8012 18.6368ZM46.3884 16.3072C46.7127 16.3072 46.9756 16.0465 46.9756 15.7248C46.9756 15.4032 46.7127 15.1424 46.3884 15.1424C46.0641 15.1424 45.8012 15.4032 45.8012 15.7248C45.8012 16.0465 46.0641 16.3072 46.3884 16.3072ZM46.3884 16.8896C47.037 16.8896 47.5627 16.3681 47.5627 15.7248C47.5627 15.0815 47.037 14.56 46.3884 14.56C45.9396 14.56 45.5496 14.8097 45.3519 15.1766L45.3453 15.1732L44.9204 14.9625V10.192V10.1122L44.8794 10.0436L40.1818 2.18115C40.0991 2.04279 39.919 1.9971 39.7795 2.07909C39.64 2.16108 39.594 2.3397 39.6766 2.47806L44.3332 10.2718V15.1424V15.3224L44.4955 15.4029L45.0827 15.6941C45.1249 15.715 45.1698 15.7249 45.214 15.7249C45.214 16.3682 45.7398 16.8896 46.3884 16.8896ZM15.2671 18.928C15.2671 18.7672 15.3985 18.6368 15.5607 18.6368C15.7228 18.6368 15.8542 18.7672 15.8542 18.928V27.8451L20.1848 32.713L20.2582 32.7956V32.9057V36.6913C20.2582 36.7035 20.2574 36.7156 20.256 36.7274C20.7636 36.8559 21.139 37.3125 21.139 37.8561C21.139 38.4994 20.6132 39.0209 19.9646 39.0209C19.316 39.0209 18.7902 38.4994 18.7902 37.8561C18.7902 37.3125 19.1656 36.8559 19.6733 36.7274C19.6727 36.7233 19.6723 36.7192 19.672 36.7151C19.6717 36.712 19.6715 36.7088 19.6714 36.7057C19.6711 36.7009 19.671 36.6961 19.671 36.6913V33.0158L15.3405 28.1479L15.2671 28.0653V27.9552V18.928ZM17.0286 36.4586C16.7043 36.4586 16.4414 36.1978 16.4414 35.8762C16.4414 35.5545 16.7043 35.2938 17.0286 35.2938C17.3529 35.2938 17.6158 35.5545 17.6158 35.8762C17.6158 36.1978 17.3529 36.4586 17.0286 36.4586ZM16.735 34.7481C16.2285 34.8774 15.8542 35.3334 15.8542 35.8762C15.8542 36.5195 16.38 37.041 17.0286 37.041C17.6772 37.041 18.203 36.5195 18.203 35.8762C18.203 35.3334 17.8288 34.8774 17.3222 34.7481V32.9057V32.8086L17.2635 32.7309L13.7991 28.1494V16.5984C13.7991 16.4376 13.6676 16.3072 13.5055 16.3072C13.3433 16.3072 13.2119 16.4376 13.2119 16.5984V28.2464V28.3435L13.2706 28.4212L16.735 33.0027V34.7481ZM19.3774 37.8561C19.3774 38.1777 19.6403 38.4385 19.9646 38.4385C20.2889 38.4385 20.5518 38.1777 20.5518 37.8561C20.5518 37.5344 20.2889 37.2737 19.9646 37.2737C19.6403 37.2737 19.3774 37.5344 19.3774 37.8561ZM13.5055 34.3617C13.1812 34.3617 12.9183 34.1009 12.9183 33.7793C12.9183 33.4576 13.1812 33.1969 13.5055 33.1969C13.8298 33.1969 14.0927 33.4576 14.0927 33.7793C14.0927 34.1009 13.8298 34.3617 13.5055 34.3617ZM13.5055 34.9441C12.8569 34.9441 12.3311 34.4226 12.3311 33.7793C12.3311 33.2357 12.7065 32.7791 13.2141 32.6506C13.2126 32.6387 13.2119 32.6267 13.2119 32.6145V31.5345L11.2026 28.4028L11.1567 28.3312V28.2464V13.9776C11.1567 13.8168 11.2881 13.6864 11.4503 13.6864C11.6124 13.6864 11.7439 13.8168 11.7439 13.9776V28.1617L13.7532 31.2933L13.7991 31.3649V31.4497V32.6145C13.7991 32.6267 13.7983 32.6387 13.7968 32.6506C14.3045 32.7791 14.6799 33.2357 14.6799 33.7793C14.6799 34.4226 14.1541 34.9441 13.5055 34.9441ZM5.28475 24.4608C5.28475 24.7825 5.54765 25.0432 5.87194 25.0432C6.19624 25.0432 6.45914 24.7825 6.45914 24.4608C6.45914 24.3494 6.42758 24.2453 6.37286 24.1568C6.306 24.1364 6.2462 24.0924 6.20738 24.0283C6.19488 24.0076 6.18527 23.986 6.17842 23.964C6.08921 23.9097 5.98426 23.8784 5.87194 23.8784C5.54765 23.8784 5.28475 24.1392 5.28475 24.4608ZM6.53058 23.4963C6.34275 23.3699 6.11604 23.296 5.87194 23.296C5.22335 23.296 4.69756 23.8175 4.69756 24.4608C4.69756 25.1041 5.22335 25.6256 5.87194 25.6256C6.52054 25.6256 7.04633 25.1041 7.04633 24.4608C7.04633 24.2743 7.00212 24.098 6.92352 23.9417L9.54616 22.3809L9.68871 22.2961V22.1312V12.8816L10.2449 11.7782C10.3174 11.6344 10.2586 11.4595 10.1136 11.3876C9.96857 11.3156 9.79222 11.3739 9.7197 11.5178L9.13251 12.6826L9.10151 12.7441V12.8128V21.9664L6.53058 23.4963ZM4.69756 22.1312C4.37326 22.1312 4.11036 21.8705 4.11036 21.5488C4.11036 21.2272 4.37326 20.9664 4.69756 20.9664C5.02185 20.9664 5.28475 21.2272 5.28475 21.5488C5.28475 21.8705 5.02185 22.1312 4.69756 22.1312ZM4.69756 22.7136C4.04896 22.7136 3.52317 22.1921 3.52317 21.5488C3.52317 20.9055 4.04896 20.384 4.69756 20.384C5.09913 20.384 5.45362 20.5839 5.6654 20.8889L7.04633 20.2041V11.648V11.5919L7.06733 11.5399L8.24172 8.62787C8.30194 8.47854 8.47281 8.40591 8.62336 8.46564C8.77391 8.52537 8.84714 8.69484 8.78692 8.84416L7.63353 11.7041V20.384V20.564L7.47123 20.6445L5.8669 21.4401C5.87024 21.4759 5.87194 21.5122 5.87194 21.5488C5.87194 22.1921 5.34615 22.7136 4.69756 22.7136ZM2.34878 18.6368C2.34878 18.9585 2.61167 19.2192 2.93597 19.2192C3.26027 19.2192 3.52317 18.9585 3.52317 18.6368C3.52317 18.3152 3.26027 18.0544 2.93597 18.0544C2.61167 18.0544 2.34878 18.3152 2.34878 18.6368ZM1.76158 18.6368C1.76158 19.2801 2.28737 19.8016 2.93597 19.8016C3.58457 19.8016 4.11036 19.2801 4.11036 18.6368C4.11036 18.5897 4.10753 18.5431 4.10204 18.4974L5.16731 17.705L5.28475 17.6176V17.472V11.1344L7.89613 5.95424C7.96864 5.81039 7.90986 5.63548 7.76483 5.56355C7.6198 5.49163 7.44344 5.54993 7.37093 5.69378L4.72855 10.9354L4.69756 10.9969V11.0656V17.3264L3.87554 17.9379C3.66128 17.655 3.32017 17.472 2.93597 17.472C2.28737 17.472 1.76158 17.9935 1.76158 18.6368ZM1.17439 16.3072C0.85009 16.3072 0.587194 16.0465 0.587194 15.7248C0.587194 15.4032 0.85009 15.1424 1.17439 15.1424C1.49869 15.1424 1.76158 15.4032 1.76158 15.7248C1.76158 16.0465 1.49869 16.3072 1.17439 16.3072ZM1.17439 16.8896C0.525792 16.8896 0 16.3681 0 15.7248C0 15.0815 0.525792 14.56 1.17439 14.56C1.62314 14.56 2.01311 14.8097 2.21082 15.1766L2.21748 15.1732L2.64237 14.9625V10.192V10.1208L2.67549 10.0577L6.49225 2.77766C6.56706 2.63497 6.74433 2.57945 6.88819 2.65365C7.03205 2.72784 7.08803 2.90366 7.01322 3.04635L3.22957 10.2632V15.1424V15.3224L3.06727 15.4029L2.48008 15.6941C2.43785 15.715 2.39298 15.7249 2.34878 15.7249C2.34874 16.3682 1.82297 16.8896 1.17439 16.8896ZM28.1853 37.8561C28.1853 38.1777 27.9224 38.4385 27.5981 38.4385C27.2738 38.4385 27.0109 38.1777 27.0109 37.8561C27.0109 37.5344 27.2738 37.2737 27.5981 37.2737C27.9224 37.2737 28.1853 37.5344 28.1853 37.8561Z" fill="url(#paint0_linear_2343_99455)"/>
<defs>
<linearGradient id="paint0_linear_2343_99455" x1="23.7814" y1="0" x2="23.7814" y2="40.7681" gradientUnits="userSpaceOnUse">
<stop stop-color="#20E6F8"/>
<stop offset="1" stop-color="#F340F7"/>
</linearGradient>
</defs>
</svg>
