<svg width="1440" height="156" viewBox="0 0 1440 156" fill="none" xmlns="http://www.w3.org/2000/svg">
<g id="&#233;&#161;&#182;&#233;&#131;&#168;&#232;&#163;&#133;&#233;&#165;&#176;" clip-path="url(#clip0_2570_90516)">
<path id="Vector" fill-rule="evenodd" clip-rule="evenodd" d="M720 156C763.078 156 798 121.078 798 78C798 34.9218 763.078 0 720 0C676.922 0 642 34.9218 642 78C642 121.078 676.922 156 720 156ZM720 1C762.526 1 797 35.4741 797 78C797 120.526 762.526 155 720 155C677.474 155 643 120.526 643 78C643 35.4741 677.474 1 720 1Z" fill="url(#paint0_linear_2570_90516)"/>
<g id="Group">
<path id="Vector_2" d="M808 77H635V156H808V77Z" fill="#131416" fill-opacity="0.1"/>
</g>
<path id="Vector_3" d="M1440 77H0V78H1440V77Z" fill="url(#paint1_linear_2570_90516)"/>
<path id="Vector_4" d="M1120 82H320V83H1120V82Z" fill="url(#paint2_linear_2570_90516)"/>
<path id="Vector_5" d="M1040 87H400V88H1040V87Z" fill="url(#paint3_linear_2570_90516)"/>
<g id="Group_2" opacity="0.6">
<path id="Vector_6" d="M920 92H520V93H920V92Z" fill="url(#paint4_linear_2570_90516)"/>
</g>
<path id="Vector_7" d="M820 97H620V98H820V97Z" fill="url(#paint5_linear_2570_90516)"/>
<g id="Group_3" filter="url(#filter0_i_2570_90516)">
<path id="Vector_8" d="M720 130C748.719 130 772 106.719 772 78C772 49.2812 748.719 26 720 26C691.281 26 668 49.2812 668 78C668 106.719 691.281 130 720 130Z" fill="#482773"/>
</g>
<g id="Rectangle 34626401" style="mix-blend-mode:color-dodge">
<path d="M668 82H772V116.5C772 135.554 756.554 151 737.5 151H702.5C683.446 151 668 135.554 668 116.5V82Z" fill="#454545" fill-opacity="0.97"/>
</g>
</g>
<defs>
<filter id="filter0_i_2570_90516" x="668" y="26" width="104" height="104" filterUnits="userSpaceOnUse" color-interpolation-filters="sRGB">
<feFlood flood-opacity="0" result="BackgroundImageFix"/>
<feBlend mode="normal" in="SourceGraphic" in2="BackgroundImageFix" result="shape"/>
<feColorMatrix in="SourceAlpha" type="matrix" values="0 0 0 0 0 0 0 0 0 0 0 0 0 0 0 0 0 0 127 0" result="hardAlpha"/>
<feOffset/>
<feGaussianBlur stdDeviation="7.5"/>
<feComposite in2="hardAlpha" operator="arithmetic" k2="-1" k3="1"/>
<feColorMatrix type="matrix" values="0 0 0 0 0.894118 0 0 0 0 0.854902 0 0 0 0 1 0 0 0 0.8 0"/>
<feBlend mode="normal" in2="shape" result="effect1_innerShadow_2570_90516"/>
</filter>
<linearGradient id="paint0_linear_2570_90516" x1="678.682" y1="13.0821" x2="679.5" y2="91.5" gradientUnits="userSpaceOnUse">
<stop stop-color="#353443"/>
<stop offset="1" stop-color="#353443" stop-opacity="0"/>
</linearGradient>
<linearGradient id="paint1_linear_2570_90516" x1="0" y1="78" x2="1436.07" y2="78" gradientUnits="userSpaceOnUse">
<stop stop-color="#372D76" stop-opacity="0"/>
<stop offset="0.50041" stop-color="#522D76"/>
<stop offset="1" stop-color="#372D76" stop-opacity="0"/>
</linearGradient>
<linearGradient id="paint2_linear_2570_90516" x1="320" y1="83" x2="1117.82" y2="83" gradientUnits="userSpaceOnUse">
<stop stop-color="#372D76" stop-opacity="0"/>
<stop offset="0.50041" stop-color="#522D76"/>
<stop offset="1" stop-color="#372D76" stop-opacity="0"/>
</linearGradient>
<linearGradient id="paint3_linear_2570_90516" x1="400" y1="88" x2="1038.25" y2="88" gradientUnits="userSpaceOnUse">
<stop stop-color="#372D76" stop-opacity="0"/>
<stop offset="0.50041" stop-color="#522D76"/>
<stop offset="1" stop-color="#372D76" stop-opacity="0"/>
</linearGradient>
<linearGradient id="paint4_linear_2570_90516" x1="520" y1="93" x2="918.908" y2="93" gradientUnits="userSpaceOnUse">
<stop stop-color="#372D76" stop-opacity="0"/>
<stop offset="0.50041" stop-color="#522D76"/>
<stop offset="1" stop-color="#372D76" stop-opacity="0"/>
</linearGradient>
<linearGradient id="paint5_linear_2570_90516" x1="620" y1="98" x2="819.051" y2="98" gradientUnits="userSpaceOnUse">
<stop stop-color="#493C9B" stop-opacity="0"/>
<stop offset="0.50041" stop-color="#493C9B"/>
<stop offset="1" stop-color="#493C9B" stop-opacity="0"/>
</linearGradient>
<clipPath id="clip0_2570_90516">
<rect width="1440" height="156" fill="white"/>
</clipPath>
</defs>
</svg>
